<svg width="670" height="670" viewBox="0 0 670 670" fill="none" xmlns="http://www.w3.org/2000/svg">
<g filter="url(#filter0_n_35_8)">
<path d="M335 670C150.052 670 0 519.948 0 335C0 150.052 150.052 0 335 0C519.948 0 670 150.052 670 335C670 519.948 519.948 670 335 670ZM141.804 145.611C156.714 155.762 175.114 164.328 196.686 171.307C211.596 131.652 231.264 99.2945 254.74 76.4536C211.278 90.0947 172.893 113.887 141.804 145.611ZM415.578 76.4536C438.736 99.2945 458.722 131.652 473.314 171.307C494.886 164.328 513.603 155.762 528.196 145.611C497.424 113.887 458.722 90.0947 415.578 76.4536ZM246.174 183.045C266.16 186.534 287.732 188.755 310.573 189.706V93.5843C285.511 106.908 262.67 139.583 246.174 183.045ZM359.744 93.5843V189.706C382.268 188.755 403.84 186.534 423.826 183.045C407.33 139.583 384.489 106.908 359.744 93.5843ZM65.6676 310.256H170.038C171.624 277.58 176.065 246.174 182.727 217.623C153.859 208.423 129.432 196.686 111.032 183.045C85.9706 220.161 69.7917 263.622 65.6676 310.256ZM499.962 310.256H604.65C600.208 263.622 584.029 220.161 558.968 183.045C540.885 196.686 516.141 208.423 487.273 217.623C494.252 246.174 498.376 277.58 499.962 310.256ZM220.161 310.256H310.573V238.561C282.973 237.609 256.326 234.437 231.899 229.995C225.871 255.057 221.747 282.339 220.161 310.256ZM359.744 310.256H449.839C448.253 282.339 444.446 255.057 438.419 229.995C413.674 234.437 387.344 237.609 359.744 238.561V310.256ZM65.6676 359.427C69.7917 407.012 86.2879 450.791 111.984 487.907C130.066 474.583 154.493 462.846 183.045 453.963C176.065 424.777 171.624 393.054 170.038 359.427H65.6676ZM220.161 359.427C221.747 388.295 225.871 415.895 231.899 441.591C256.643 437.15 282.973 433.977 310.573 432.708V359.427H220.161ZM359.744 432.708C387.027 433.977 413.674 437.15 438.101 441.591C444.446 415.895 448.57 388.295 450.156 359.427H359.744V432.708ZM487.273 453.963C515.824 462.846 539.934 474.583 558.333 487.907C583.712 450.791 600.208 407.012 604.65 359.427H499.962C498.693 393.054 494.252 424.777 487.273 453.963ZM359.744 481.88V577.05C384.171 563.726 407.012 531.368 423.509 488.542C403.523 485.052 382.268 482.831 359.744 481.88ZM246.491 488.542C262.988 531.368 285.829 563.726 310.573 577.05V481.88C288.049 482.831 266.477 485.052 246.491 488.542ZM142.756 525.341C173.527 556.113 211.278 579.588 253.788 593.229C230.947 570.705 211.596 538.665 197.003 500.279C175.748 506.941 157.348 515.189 142.756 525.341ZM472.997 500.279C458.722 538.665 439.053 570.705 416.212 593.229C458.722 579.588 496.79 556.113 527.244 525.341C512.652 515.189 494.252 506.941 472.997 500.279Z" fill="url(#paint0_linear_35_8)"/>
</g>
<defs>
<filter id="filter0_n_35_8" x="0" y="0" width="670" height="670" filterUnits="userSpaceOnUse" color-interpolation-filters="sRGB">
<feFlood flood-opacity="0" result="BackgroundImageFix"/>
<feBlend mode="normal" in="SourceGraphic" in2="BackgroundImageFix" result="shape"/>
<feTurbulence type="fractalNoise" baseFrequency="0.10000000149011612 0.10000000149011612" stitchTiles="stitch" numOctaves="3" result="noise" seed="4587" />
<feColorMatrix in="noise" type="luminanceToAlpha" result="alphaNoise" />
<feComponentTransfer in="alphaNoise" result="coloredNoise1">
<feFuncA type="discrete" tableValues="0 0 0 0 0 0 0 0 0 0 0 0 0 0 0 0 0 0 0 1 1 1 1 1 1 1 1 1 1 1 0 0 0 0 0 0 0 0 0 0 0 0 0 0 0 0 0 0 0 0 0 0 0 0 0 0 0 0 0 0 0 0 0 0 0 0 0 0 0 0 0 0 0 0 0 0 0 0 0 0 0 0 0 0 0 0 0 0 0 0 0 0 0 0 0 0 0 0 0 0 "/>
</feComponentTransfer>
<feComposite operator="in" in2="shape" in="coloredNoise1" result="noise1Clipped" />
<feComponentTransfer in="alphaNoise" result="coloredNoise2">
<feFuncA type="discrete" tableValues="0 0 0 0 0 0 0 0 0 0 0 0 0 0 0 0 0 0 0 0 0 0 0 0 0 0 0 0 0 0 0 0 0 0 0 0 0 0 0 0 0 0 0 0 0 0 0 0 0 0 0 0 0 0 0 0 0 0 0 0 0 0 0 0 0 0 0 0 0 0 1 1 1 1 1 1 1 1 1 1 1 0 0 0 0 0 0 0 0 0 0 0 0 0 0 0 0 0 0 0 "/>
</feComponentTransfer>
<feComposite operator="in" in2="shape" in="coloredNoise2" result="noise2Clipped" />
<feFlood flood-color="rgba(0, 0, 0, 0.25)" result="color1Flood" />
<feComposite operator="in" in2="noise1Clipped" in="color1Flood" result="color1" />
<feFlood flood-color="rgba(255, 255, 255, 0.25)" result="color2Flood" />
<feComposite operator="in" in2="noise2Clipped" in="color2Flood" result="color2" />
<feMerge result="effect1_noise_35_8">
<feMergeNode in="shape" />
<feMergeNode in="color1" />
<feMergeNode in="color2" />
</feMerge>
</filter>
<linearGradient id="paint0_linear_35_8" x1="519.946" y1="105.258" x2="158.115" y2="619.518" gradientUnits="userSpaceOnUse">
<stop stop-color="#2FD2FF"/>
<stop offset="1" stop-color="#0040B6"/>
</linearGradient>
</defs>
</svg>
